<svg width="385" height="384" viewBox="0 0 385 384" fill="none" xmlns="http://www.w3.org/2000/svg">
<path d="M187.236 309.847C185.039 305.406 184.566 297.868 183.903 260.979C183.108 216.703 183.108 216.705 139.366 216.653C98.4847 216.602 92.3433 216.851 88.6165 214.201C78.439 211.848 77.0378 207.518 80.8189 200.022C81.3063 197.39 82.7276 194.536 85.0843 191.319C89.0756 185.869 90.9345 181.359 90.6358 177.76C90.5191 177.335 90.3732 176.892 90.204 176.411C88.2258 170.786 79.7351 168.276 62.0704 168.093C47.1851 167.94 37.6443 171.307 34.8067 176.738C33.4968 180.719 35.3087 185.717 40.5508 191.371C45.7997 197.032 47.7257 200.939 46.5155 204.667C46.2272 208.565 43.689 211.99 38.9292 214.392C38.3683 214.676 36.7996 214.954 34.4432 215.22C28.9091 216.939 19.8412 217.37 0 217.468C6.07484 262.414 27.9639 303.769 61.7856 334.2C95.6074 364.631 139.176 382.172 184.767 383.711C185.05 365.824 186.014 359.778 189.511 356.097C192.66 352.531 195.347 350.743 198.65 350.735C199.063 350.701 199.486 350.723 199.952 350.821C202.996 351.214 206.619 352.97 211.54 356.087C218.403 360.434 223.614 361.976 227.405 360.519C232.619 358.102 234.796 349.749 234.799 334.752C234.801 318.157 232.36 310.774 225.902 307.848C224.35 307.145 223.194 306.645 222.17 306.427C220.64 306.546 219.006 307.004 217.284 307.841C215.895 308.814 214.163 310.286 211.738 312.372C209 314.728 206.422 316.423 204.009 317.453C201.916 318.512 200.008 318.896 198.122 318.635C194.763 318.452 191.809 316.622 189.265 313.147C188.458 312.222 187.788 311.179 187.236 309.847Z" fill="#E13939"/>
<path d="M190.604 0.00380453C190.353 5.40557 190.352 11.9843 190.352 19.9987C190.352 35.1315 190.475 46.4472 190.992 54.6141C191.92 65.93 193.501 71.2336 196.475 72.2955C199.187 72.8773 203.075 70.1561 208.644 65.365C212.631 61.9339 216.489 60.0802 220.067 59.5803C225.643 58.5156 230.552 60.8617 234.146 66.1278C240.953 75.1393 243.604 92.3861 238.638 112.436C237.786 115.878 236.436 118.704 234.693 120.889C229.348 128.392 220.444 128.799 208.696 121.359C200.784 116.347 196.344 113.778 193.763 117.714C190.884 123.337 190.352 138.062 190.352 166.919C190.352 201.578 190.354 208.887 211.791 210.43C217.777 210.039 225.115 209.921 234.115 209.774C268.2 209.222 284.158 208.491 288.847 205.018C291.135 202.146 289.544 198.657 284.259 193.508C279.721 189.085 277.429 184.745 277.033 180.743C274.143 167.364 291.352 157.629 319.094 159.927C337.003 161.409 346.115 167.192 346.016 176.623C346.352 181.213 344.377 186.656 339.995 192.723C335.947 198.327 334.557 202.429 336.891 205.299C341.554 208.361 355.075 209.118 383.531 209.651C384.083 203.753 384.36 197.834 384.361 191.911C384.361 166.709 379.368 141.753 369.667 118.47C359.966 95.1859 345.746 74.0298 327.821 56.2092C309.896 38.3886 288.615 24.2526 265.194 14.6082C241.774 4.96378 216.672 -7.93763e-05 191.321 9.51968e-10C191.082 0.000565445 190.843 0.00235516 190.604 0.00380453Z" fill="#E13939"/>
</svg>
